# AST/ASF file generated using VICON BodyLanguage
# -----------------------------------------------
:version 1.10
:name VICON
:units
  mass 1.0
  length 0.45
  angle deg
:documentation
   .ast/.asf automatically generated from VICON data using
   VICON BodyBuilder and BodyLanguage model FoxedUp or BRILLIANT.MOD
:root
   order TX TY TZ RX RY RZ
   axis XYZ
   position 0 0 0  
   orientation 0 0 0 
:bonedata
  begin
     id 1 
     name lhipjoint
     direction 0.702568 -0.596508 0.388042 
     length 2.56661 
     axis 0 0 0  XYZ
  end
  begin
     id 2 
     name lfemur
     direction 0.34202 -0.939693 0  
     length 6.58374  
     axis 0 0 20  XYZ
    dof rx ry rz
    limits (-160.0 20.0)
           (-70.0 70.0)
           (-60.0 70.0)
  end
  begin
     id 3 
     name ltibia
     direction 0.34202 -0.939693 0   
     length 6.62538   
     axis 0 0 20   XYZ
    dof rx
    limits (-10.0 170.0)
  end
  begin
     id 4 
     name lfoot
     direction 0.10455 -0.287249 0.952133   
     length 2.26699   
     axis -90 7.62852e-016 20   XYZ
    dof rx rz
    limits (-45.0 90.0)
           (-70.0 20.0)
  end
  begin
     id 5 
     name ltoes
     direction 1.53572e-011 -4.22322e-011 1   
     length 1.12949   
     axis -90 7.62852e-016 20   XYZ
    dof rx
    limits (-90.0 20.0)
  end
  begin
     id 6 
     name rhipjoint
     direction -0.728055 -0.574632 0.373811   
     length 2.66432  
     axis 0 0 0  XYZ 
  end
  begin
     id 7 
     name rfemur
     direction -0.34202 -0.939693 0   
     length 6.66732   
     axis 0 0 -20   XYZ
    dof rx ry rz
    limits (-160.0 20.0)
           (-70.0 70.0)
           (-70.0 60.0)
  end
  begin
     id 8 
     name rtibia
     direction -0.34202 -0.939693 0   
     length 6.59288   
     axis 0 0 -20   XYZ
    dof rx
    limits (-10.0 170.0)
 end
 begin
     id 9 
     name rfoot
     direction -0.119193 -0.327479 0.93731   
     length 2.38061  
     axis -90 -7.62852e-016 -20   XYZ
    dof rx rz
    limits (-45.0 90.0)
           (-20.0 70.0)
  end
  begin
     id 10 
     name rtoes
     direction -1.53547e-011 -4.21827e-011 1   
     length 1.17899   
     axis -90 -7.62852e-016 -20   XYZ
    dof rx
    limits (-90.0 20.0)
  end
  begin
     id 11 
     name lowerback
     direction -0.000416114 0.999912 -0.0132284   
     length 2.12109   
     axis 0 0 0   XYZ
    dof rx ry rz
    limits (-20.0 45.0)
           (-30.0 30.0)
           (-30.0 30.0)
  end
  begin
     id 12 
     name upperback
     direction -0.00136371 0.99809 0.0617608   
     length 2.10067   
     axis 0 0 0   XYZ
    dof rx ry rz
    limits (-20.0 45.0)
           (-30.0 30.0)
           (-30.0 30.0)
  end
  begin
     id 13 
     name thorax
     direction -3.43026e-005 0.997776 0.0666515   
     length 2.10618   
     axis 0 0 0   XYZ
    dof rx ry rz
    limits (-20.0 45.0)
           (-30.0 30.0)
           (-30.0 30.0)
  end
  begin
     id 14 
     name lowerneck
     direction 0.0398646 0.998418 0.0396592   
     length 1.83817   
     axis 0 0 0   XYZ
    dof rx ry rz
    limits (-20.0 45.0)
           (-30.0 30.0)
           (-30.0 30.0)
  end
  begin
     id 15 
     name upperneck
     direction -0.0367268 0.961527 -0.272244   
     length 1.81975   
     axis 0 0 0   XYZ
    dof rx ry rz
    limits (-20.0 45.0)
           (-30.0 30.0)
           (-30.0 30.0)
  end
  begin
     id 16
     name head
     direction -0.0182665 0.99536 -0.0944669  
     length 1.86026  
     axis 0 0 0   XYZ
    dof rx ry rz
    limits (-20.0 45.0)
           (-30.0 30.0)
           (-30.0 30.0)
  end
  begin
     id 17 
     name lclavicle
     direction 0.924239 0.361045 0.124212  
     length 3.26878  
     axis 0 0 0   XYZ
    dof ry rz
    limits (-20.0 10.0)
           (0.0 20.0)
  end
  begin
     id 18 
     name lhumerus
     direction 1 -4.48968e-011 -2.56583e-027   
     length 4.58538   
     axis 180 -30 -90   XYZ
    dof rx ry rz
    limits (-60.0 90.0)
           (-90.0 90.0)
           (-90.0 90.0)
  end
  begin
     id 19
     name lradius
     direction 1 -4.4898e-011 -5.50375e-027   
     length 2.68935   
     axis 180 -30 -90   XYZ
    dof rx
    limits (-10.0 170.0)
  end
  begin
     id 20
     name lwrist
     direction 1 -4.48939e-011 -1.48955e-026   
     length 1.34468   
     axis 9.0955e-015 90 90   XYZ
    dof ry
    limits (-180.0 0.0)
 end
  begin
     id 21 
     name lhand
     direction 1 -4.48936e-011 -2.97907e-026   
     length 0.585058   
     axis 1.90115e-014 90 90   XYZ
    dof rx rz
    limits (-90.0 90.0)
           (-45.0 45.0)
  end
  begin
     id 22 
     name lfingers
     direction 1 -4.49082e-011 -5.96235e-026   
     length 0.471689   
     axis 3.80223e-014 90 90   XYZ
    dof rx
    limits (0.0 90.0)
  end
  begin
     id 23
     name lthumb
     direction 0.707107 -6.3489e-011 0.707107   
     length 0.677253   
     axis -90 45 -3.84942e-014   XYZ
    dof rx rz
    limits (-45.0 45.0)
           (-45.0 45.0)
  end
  begin
     id 24 
     name rclavicle
     direction -0.923098 0.371783 0.0983239   
     length 3.19656  
     axis 0 0 0   XYZ 
    dof ry rz
    limits (-10.0 20.0)
           (-20.0 0.0)
  end
  begin
     id 25 
     name rhumerus
     direction -1 -4.48976e-011 -2.5492e-027  
     length 4.4745   
     axis 180 30 90   XYZ
    dof rx ry rz
    limits (-90.0 60.0)
           (-90.0 90.0)
           (-90.0 90.0)
  end
  begin
     id 26 
     name rradius
     direction -1 -4.48941e-011 -4.36555e-027   
     length 2.93896   
     axis 180 30 90   XYZ
    dof rx
    limits (-10.0 170.0)
  end
  begin
     id 27 
     name rwrist
     direction -1 -4.49044e-011 -1.49032e-026   
     length 1.46948   
     axis 9.0955e-015 -90 -90   XYZ
    dof ry
    limits (-180.0 0.0)
  end
  begin
     id 28
     name rhand
     direction -1 -4.48826e-011 -2.97749e-026   
     length 0.405092   
     axis 1.90115e-014 -90 -90   XYZ
    dof rx rz
    limits (-90.0 90.0)
           (-45.0 45.0)
  end
  begin
     id 29
     name rfingers
     direction -1 -4.49209e-011 -5.96602e-026   
     length 0.326596   
     axis 3.80223e-014 -90 -90   XYZ
    dof rx
    limits (0.0 90.0)
  end
  begin
     id 30
     name rthumb
     direction -0.707107 -6.34776e-011 0.707107   
     length 0.468928   
     axis -90 -45 3.84942e-014   XYZ
    dof rx rz
    limits (-45.0 45.0)
           (-45.0 45.0)
  end
:hierarchy
  begin
    root lhipjoint rhipjoint lowerback
    lhipjoint lfemur
    lfemur ltibia
    ltibia lfoot
    lfoot ltoes
    rhipjoint rfemur
    rfemur rtibia
    rtibia rfoot
    rfoot rtoes
    lowerback upperback
    upperback thorax
    thorax lowerneck lclavicle rclavicle
    lowerneck upperneck
    upperneck head
    lclavicle lhumerus
    lhumerus lradius
    lradius lwrist
    lwrist lhand lthumb
    lhand lfingers
    rclavicle rhumerus
    rhumerus rradius
    rradius rwrist
    rwrist rhand rthumb
    rhand rfingers
  end

#!OML:ASF H:\Punching\Project 1\Capture day 1\Session 1\female.ASF
:FULLY-SPECIFIED
:DEGREES
154
root 3.4798 15.3129 10.043 14.3396 -18.5412 -2.33844
lowerback -0.558908 -2.06006 3.60348
upperback -6.37295 -2.48444 4.28425
thorax -6.28344 -1.31931 2.5813
lowerneck -5.94226 10.6983 15.1765
upperneck 24.3991 17.4964 -18.1802
head 12.0314 7.73935 -6.9576
rclavicle 6.35738e-014 -4.21423e-014
rhumerus -68.6822 17.1918 -83.565
rradius 98.78
rwrist -25.2603
rhand -13.7394 -4.42844
rfingers 7.12502
rthumb 12.3804 -34.0418
lclavicle 6.35738e-014 -4.21423e-014
lhumerus 49.6132 9.1719 9.07343
lradius 76.3258
lwrist -27.9622
lhand -10.9257 1.4455
lfingers 7.12502
lthumb 15.092 30.8753
rfemur -3.64629 5.74935 8.75586
rtibia 15.1648
rfoot -17.1122 -18.4011
rtoes -9.85264
lfemur -40.025 4.73002 -13.7311
ltibia 41.1296
lfoot -10.6077 7.68278
ltoes -0.0172335
155
root 3.51543 15.3032 10.0829 14.3786 -18.5621 -2.37878
lowerback -0.445285 -2.08767 3.51151
upperback -6.30508 -2.51735 4.34356
thorax -6.26886 -1.32841 2.69849
lowerneck -6.02318 10.7314 15.027
upperneck 24.8839 17.6504 -18.2187
head 12.2643 7.77243 -6.94199
rclavicle 8.0309e-014 -1.51076e-014
rhumerus -68.8795 16.8615 -83.2
rradius 98.6969
rwrist -25.3298
rhand -13.5249 -4.35417
rfingers 7.12502
rthumb 12.5872 -33.955
lclavicle 8.0309e-014 -1.51076e-014
lhumerus 50.1947 10.4808 9.9515
lradius 74.5878
lwrist -33.1648
lhand -10.5793 -0.314175
lfingers 7.12502
lthumb 15.4258 29.0902
rfemur -3.60277 5.86764 8.56558
rtibia 15.2178
rfoot -17.001 -18.273
rtoes -10.2448
lfemur -40.0989 4.75965 -13.9133
ltibia 41.4358
lfoot -10.9832 7.6809
ltoes 0.131996
156
root 3.54977 15.2945 10.1217 14.4095 -18.6127 -2.4151
lowerback -0.355263 -2.11331 3.44496
upperback -6.22174 -2.54944 4.39772
thorax -6.22553 -1.33864 2.79429
lowerneck -6.17811 10.8029 14.9237
upperneck 25.4631 17.8758 -18.2887
head 12.5798 7.83111 -6.93603
rclavicle -4.48756e-014 -3.97569e-014
rhumerus -68.9886 16.6964 -82.9914
rradius 98.6499
rwrist -25.292
rhand -13.3276 -4.2716
rfingers 7.12502
rthumb 12.7774 -33.8606
lclavicle -4.48756e-014 -3.97569e-014
lhumerus 50.585 11.4757 10.5222
lradius 73.6366
lwrist -35.8095
lhand -10.3247 -1.81383
lfingers 7.12502
lthumb 15.671 27.5715
rfemur -3.56977 5.99381 8.36388
rtibia 15.2774
rfoot -16.8759 -18.1008
rtoes -10.6825
lfemur -40.1207 4.75961 -14.0794
ltibia 41.6791
lfoot -11.3471 7.73978
ltoes 0.257461
157
root 3.58267 15.2873 10.1589 14.4386 -18.6872 -2.44597
lowerback -0.291815 -2.13086 3.41027
upperback -6.13032 -2.57265 4.43331
thorax -6.16076 -1.34674 2.85074
lowerneck -6.35406 10.9064 14.8981
upperneck 26.0896 18.1522 -18.3745
head 12.9479 7.91514 -6.94275
rclavicle 5.02677e-014 6.20208e-014
rhumerus -69.0232 16.6396 -82.9291
rradius 98.6089
rwrist -25.12
rhand -13.1538 -4.18712
rfingers 7.12502
rthumb 12.9449 -33.7656
lclavicle 5.02677e-014 6.20208e-014
lhumerus 50.8112 12.0536 10.6768
lradius 73.3493
lwrist -35.767
lhand -10.1708 -2.56511
lfingers 7.12502
lthumb 15.8192 26.8086
rfemur -3.55211 6.1275 8.1515
rtibia 15.34
rfoot -16.7392 -17.8898
rtoes -11.1529
lfemur -40.114 4.72893 -14.228
ltibia 41.8814
lfoot -11.6819 7.8438
ltoes 0.332329
158
root 3.61385 15.2819 10.194 14.4698 -18.7774 -2.47133
lowerback -0.248879 -2.13397 3.41579
upperback -6.0455 -2.57778 4.43315
thorax -6.0951 -1.34902 2.84573
lowerneck -6.45583 11.0067 14.8567
upperneck 26.7002 18.4073 -18.3743
head 13.2822 7.99988 -6.91829
rclavicle -3.18055e-014 1.03368e-014
rhumerus -69.0183 16.6215 -82.9995
rradius 98.5527
rwrist -24.8109
rhand -12.9878 -4.10136
rfingers 7.12502
rthumb 13.1049 -33.6696
lclavicle -3.18055e-014 1.03368e-014
lhumerus 50.9559 12.2143 10.4813
lradius 73.5468
lwrist -33.4375
lhand -10.1788 -2.62882
lfingers 7.12502
lthumb 15.8115 26.7455
rfemur -3.55399 6.26342 7.93269
rtibia 15.4014
rfoot -16.5901 -17.6487
rtoes -11.6479
lfemur -40.1052 4.67353 -14.3577
ltibia 42.0686
lfoot -11.9726 7.97048
ltoes 0.354396
159
root 3.64289 15.2782 10.2269 14.5007 -18.8823 -2.48267
lowerback -0.228929 -2.11955 3.4496
upperback -5.97645 -2.56124 4.3858
thorax -6.03686 -1.34333 2.77408
lowerneck -6.44952 11.0855 14.7928
upperneck 27.2783 18.5971 -18.2417
head 13.5479 8.07244 -6.8499
rclavicle -4.7932e-014 2.06736e-014
rhumerus -69.0001 16.588 -83.1861
rradius 98.4621
rwrist -24.3957
rhand -12.8399 -4.01658
rfingers 7.12502
rthumb 13.2475 -33.5756
lclavicle -4.7932e-014 2.06736e-014
lhumerus 51.1019 12.0165 10.0673
lradius 74.0721
lwrist -29.496
lhand -10.361 -2.19603
lfingers 7.12502
lthumb 15.636 27.1921
rfemur -3.5751 6.40117 7.70067
rtibia 15.4648
rfoot -16.4371 -17.3818
rtoes -12.1516
lfemur -40.1075 4.61146 -14.4815
ltibia 42.2615
lfoot -12.2166 8.09379
ltoes 0.314385
160
root 3.66942 15.2758 10.2573 14.5356 -18.9869 -2.4844
lowerback -0.232785 -2.09098 3.5079
upperback -5.92772 -2.52751 4.2913
thorax -5.98996 -1.33166 2.63845
lowerneck -6.3586 11.1297 14.7725
upperneck 27.8544 18.7093 -18.0319
head 13.7739 8.12754 -6.77536
rclavicle 8.49804e-015 7.95139e-015
rhumerus -68.9846 16.5088 -83.472
rradius 98.3371
rwrist -23.9262
rhand -12.7175 -3.93218
rfingers 7.12502
rthumb 13.3655 -33.4835
lclavicle 8.49804e-015 7.95139e-015
lhumerus 51.3082 11.5643 9.56147
lradius 74.8037
lwrist -24.7537
lhand -10.6218 -1.48758
lfingers 7.12502
lthumb 15.3848 27.92
rfemur -3.61817 6.52899 7.46702
rtibia 15.5384
rfoot -16.2846 -17.1003
rtoes -12.6544
lfemur -40.1398 4.56028 -14.6
ltibia 42.475
lfoot -12.4118 8.18394
ltoes 0.222011
161
root 3.69308 15.2742 10.2847 14.5727 -19.084 -2.47545
lowerback -0.258479 -2.05499 3.57182
upperback -5.89876 -2.48574 4.15979
thorax -5.95329 -1.31732 2.46058
lowerneck -6.22084 11.1244 14.7371
upperneck 28.4617 18.7213 -17.7176
head 13.966 8.14885 -6.67751
rclavicle -2.74323e-014 1.43125e-014
rhumerus -68.9747 16.3902 -83.8375
rradius 98.1882
rwrist -23.4682
rhand -12.6299 -3.85461
rfingers 7.12502
rthumb 13.45 -33.4004
lclavicle -2.74323e-014 1.43125e-014
lhumerus 51.5973 10.973 9.06889
lradius 75.6665
lwrist -19.8582
lhand -10.6863 -0.644998
lfingers 7.12502
lthumb 15.3227 28.7673
rfemur -3.68399 6.63573 7.23498
rtibia 15.6313
rfoot -16.1434 -16.8066
rtoes -13.1376
lfemur -40.2057 4.53603 -14.7199
ltibia 42.7124
lfoot -12.5616 8.22371
ltoes 0.0820766
162
root 3.71361 15.2731 10.3092 14.6074 -19.1652 -2.46352
lowerback -0.297285 -2.01653 3.63022
upperback -5.88018 -2.44198 4.00944
thorax -5.92039 -1.30223 2.26606
lowerneck -6.02892 11.0487 14.6604
upperneck 29.0732 18.6201 -17.3612
head 14.1134 8.12351 -6.58024
rclavicle 4.41053e-014 -4.77083e-014
rhumerus -68.9609 16.2531 -84.2573
rradius 98.0392
rwrist -23.0891
rhand -12.5826 -3.78765
rfingers 7.12502
rthumb 13.4955 -33.3304
lclavicle 4.41053e-014 -4.77083e-014
lhumerus 51.9603 10.3374 8.65105
lradius 76.5386
lwrist -15.4598
lhand -10.5239 0.229246
lfingers 7.12502
lthumb 15.4791 29.6296
rfemur -3.76207 6.71347 7.01855
rtibia 15.7458
rfoot -16.0108 -16.5076
rtoes -13.6292
lfemur -40.2985 4.55268 -14.8372
ltibia 42.971
lfoot -12.6693 8.19984
ltoes -0.106428
163
root 3.73108 15.272 10.3303 14.6386 -19.2203 -2.44976
lowerback -0.355243 -1.98213 3.67288
upperback -5.85902 -2.4055 3.85791
thorax -5.87274 -1.28988 2.07866
lowerneck -5.81214 10.9222 14.5195
upperneck 29.6681 18.436 -16.9737
head 14.2193 8.05993 -6.47497
rclavicle -3.31722e-014 -3.57812e-014
rhumerus -68.9149 16.1277 -84.7056
rradius 97.9056
rwrist -22.8316
rhand -12.5777 -3.73389
rfingers 7.12502
rthumb 13.5002 -33.2763
lclavicle -3.31722e-014 -3.57812e-014
lhumerus 52.3688 9.72403 8.36031
lradius 77.3061
lwrist -12.0738
lhand -10.2319 1.01394
lfingers 7.12502
lthumb 15.7604 30.3923
rfemur -3.84448 6.75135 6.82328
rtibia 15.8785
rfoot -15.8948 -16.2066
rtoes -14.1053
lfemur -40.4132 4.60812 -14.9521
ltibia 43.2405
lfoot -12.7402 8.1115
ltoes -0.332067
164
root 3.7455 15.2707 10.3481 14.6655 -19.2474 -2.45132
lowerback -0.425679 -1.94975 3.70967
upperback -5.82496 -2.3725 3.72232
thorax -5.80316 -1.27828 1.91047
lowerneck -5.60716 10.7639 14.2669
upperneck 30.2425 18.1943 -16.5324
head 14.2871 7.96369 -6.33579
rclavicle -3.18801e-014 2.38542e-014
rhumerus -68.8245 16.0359 -85.156
rradius 97.8125
rwrist -22.7198
rhand -12.6072 -3.7022
rfingers 7.12502
rthumb 13.4719 -33.2465
lclavicle -3.18801e-014 2.38542e-014
lhumerus 52.7958 9.15978 8.21183
lradius 77.8783
lwrist -9.99585
lhand -9.96799 1.59281
lfingers 7.12502
lthumb 16.0145 30.9509
rfemur -3.92186 6.75181 6.66861
rtibia 16.0246
rfoot -15.7988 -15.9046
rtoes -14.5625
lfemur -40.5366 4.7021 -15.0454
ltibia 43.51
lfoot -12.7818 7.96403
ltoes -0.580618
165
root 3.75704 15.269 10.3627 14.6819 -19.2497 -2.4704
lowerback -0.499753 -1.91845 3.73802
upperback -5.77156 -2.34092 3.61487
thorax -5.70938 -1.26583 1.77569
lowerneck -5.41114 10.6002 13.9488
upperneck 30.7593 17.9433 -16.0977
head 14.3251 7.8563 -6.18487
rclavicle -8.91549e-014 1.59028e-014
rhumerus -68.6764 15.9976 -85.5825
rradius 97.7644
rwrist -22.7451
rhand -12.6489 -3.68855
rfingers 7.12502
rthumb 13.4316 -33.2355
lclavicle -8.91549e-014 1.59028e-014
lhumerus 53.2107 8.65375 8.20001
lradius 78.1937
lwrist -9.32767
lhand -9.88518 1.86836
lfingers 7.12502
lthumb 16.0942 31.22
rfemur -3.98009 6.72753 6.55607
rtibia 16.1735
rfoot -15.7265 -15.6042
rtoes -14.9857
lfemur -40.652 4.82834 -15.1127
ltibia 43.7684
lfoot -12.8066 7.7655
ltoes -0.824862
